<svg width="28" height="28" viewBox="0 0 28 28" fill="none" xmlns="http://www.w3.org/2000/svg">
<path d="M2 16.4286V16.4286C2 19.7619 2 21.4286 2.64381 22.7039C3.22174 23.8487 4.15126 24.7783 5.29607 25.3562C6.57139 26 8.23807 26 11.5714 26H16.4286C19.7619 26 21.4286 26 22.7039 25.3562C23.8487 24.7783 24.7783 23.8487 25.3562 22.7039C26 21.4286 26 19.7619 26 16.4286V16.4286M2 16.4286V14C2 8.34315 2 5.51472 3.75736 3.75736C5.51472 2 8.34315 2 14 2V2C19.6569 2 22.4853 2 24.2426 3.75736C26 5.51472 26 8.34315 26 14V16.4286M2 16.4286H7.45122C7.98214 16.4286 8.24759 16.4286 8.48534 16.529C8.72309 16.6295 8.90813 16.8198 9.27822 17.2005L10.509 18.4664C10.8679 18.8356 11.0474 19.0202 11.242 19.1743C11.7847 19.604 12.434 19.8783 13.1204 19.9679C13.3666 20 13.624 20 14.1389 20V20C14.6538 20 14.9112 20 15.1574 19.9679C15.8438 19.8783 16.493 19.604 17.0357 19.1743C17.2304 19.0202 17.4098 18.8356 17.7688 18.4664L18.9996 17.2005C19.3696 16.8198 19.5547 16.6295 19.7924 16.529C20.0302 16.4286 20.2956 16.4286 20.8266 16.4286H26" stroke="#000000" stroke-width="3" stroke-linecap="round" stroke-linejoin="round"/>
</svg>
