<svg width="28" height="28" viewBox="0 0 28 28" fill="none" xmlns="http://www.w3.org/2000/svg">
<path d="M16 23.5V20.8C16 19.1198 16 18.2798 16.327 17.638C16.6146 17.0735 17.0735 16.6146 17.638 16.327C18.2798 16 19.1198 16 20.8 16H23.5" stroke="#000000" stroke-width="3" stroke-linecap="round" stroke-linejoin="round"/>
<path d="M16.2355 3H12.6C9.23969 3 7.55953 3 6.27606 3.65396C5.14708 4.2292 4.2292 5.14708 3.65396 6.27606C3 7.55953 3 9.23969 3 12.6V16.2355C3 18.8102 3 20.0976 3.3886 21.1242C3.99748 22.7327 5.26734 24.0025 6.87581 24.6114C7.90236 25 9.18976 25 11.7645 25C13.0785 25 13.7355 25 14.3602 24.8857C15.3359 24.7072 16.2626 24.3234 17.0787 23.7597C17.6012 23.3988 18.0658 22.9342 18.9949 22.0051L22.0051 18.9949C22.9342 18.0658 23.3988 17.6012 23.7597 17.0787C24.3234 16.2626 24.7072 15.3359 24.8857 14.3602C25 13.7355 25 13.0785 25 11.7645C25 9.18976 25 7.90236 24.6114 6.87581C24.0025 5.26734 22.7327 3.99748 21.1242 3.3886C20.0976 3 18.8102 3 16.2355 3Z" stroke="#000000" stroke-width="3" stroke-linejoin="round"/>
<path d="M9 10H19" stroke="#000000" stroke-width="3" stroke-linecap="round" stroke-linejoin="round"/>
<path d="M9 15H11" stroke="#000000" stroke-width="3" stroke-linecap="round" stroke-linejoin="round"/>
</svg>
