<svg width="32" height="32" viewBox="-4.2 -1.14 32 32" fill="none" xmlns="http://www.w3.org/2000/svg">
<g id="Rectangle 2395">
<path id="Rectangle 2395_2" d="M1.5 12.8179V16.8964C1.5 21.0962 1.5 23.1961 2.38123 24.4013C3.14973 25.4523 4.32995 26.1258 5.62577 26.2527C7.11167 26.3983 8.91954 25.33 12.5353 23.1934L15.9863 21.1542L15.9863 21.1542C19.4942 19.0814 21.2481 18.045 21.8406 16.6996C22.3576 15.5257 22.3576 14.1886 21.8406 13.0147C21.2481 11.6693 19.4942 10.6329 15.9863 8.56008L12.5353 6.52085C8.91954 4.38427 7.11167 3.31599 5.62577 3.46154C4.32995 3.58847 3.14973 4.26194 2.38123 5.31297C1.5 6.51818 1.5 8.61809 1.5 12.8179Z" stroke="#888A8E" stroke-width="3"/>
</g>
</svg>
