<svg width="28" height="28" viewBox="0 0 28 28" fill="none" xmlns="http://www.w3.org/2000/svg">
<g id="tag">
<path id="Vector" d="M6.10097 12.6396L11.0022 6.84726C11.9935 5.67569 13.4503 5 14.985 5H20.3913C21.832 5 23 6.16795 23 7.6087V13.015C23 14.5497 22.3243 16.0065 21.1527 16.9978L15.3604 21.899C13.289 23.6518 10.2198 23.5241 8.30105 21.6054L6.3946 19.6989C4.47586 17.7802 4.3482 14.711 6.10097 12.6396Z" stroke="#4B4E52" stroke-width="2.2"/>
<path id="Vector_2" d="M15.5 10.6434C15.5 9.46181 16.4579 8.50391 17.6395 8.50391V8.50391C18.667 8.50391 19.5 9.33687 19.5 10.3644V10.5039C19.5 11.6085 18.6046 12.5039 17.5 12.5039H17.3605C16.333 12.5039 15.5 11.6709 15.5 10.6434V10.6434Z" fill="#4B4E52"/>
</g>
</svg>
