<svg width="28" height="28" viewBox="0 0 28 28" fill="none" xmlns="http://www.w3.org/2000/svg">
<path d="M18.7167 3H12.6C9.23969 3 7.55953 3 6.27606 3.65396C5.14708 4.2292 4.2292 5.14708 3.65396 6.27606C3 7.55953 3 9.23969 3 12.6V15.4C3 18.7603 3 20.4405 3.65396 21.7239C4.2292 22.8529 5.14708 23.7708 6.27606 24.346C7.55953 25 9.23969 25 12.6 25H15.4C18.7603 25 20.4405 25 21.7239 24.346C22.8529 23.7708 23.7708 22.8529 24.346 21.7239C25 20.4405 25 18.7603 25 15.4V9.28326C25 9.02025 25 8.88875 24.9959 8.77758C24.8794 5.63849 22.3615 3.12057 19.2224 3.00412C19.1112 3 18.9797 3 18.7167 3Z" stroke="#C1C3C6" stroke-width="3"/>
<path d="M8.99805 3.79395H19.0029C21.3717 3.79395 23.3693 5.37688 24 7.54199H4.00098C4.63164 5.37684 6.62929 3.79395 8.99805 3.79395Z" fill="#C1C3C6" stroke="#C1C3C6" stroke-width="2.91667"/>
<path d="M14.083 19.3556L14 19.6875L13.9172 19.3561C13.5373 17.8365 12.3506 16.65 10.831 16.2704L10.5 16.1877L10.8323 16.1046C12.3513 15.7246 13.5372 14.5385 13.917 13.0195L14 12.6875L14.0829 13.0191C14.4627 14.5383 15.649 15.7245 17.1682 16.1043L17.5 16.1873L17.1685 16.2701C15.6491 16.6499 14.4628 17.8362 14.083 19.3556Z" fill="#C1C3C6" stroke="#C1C3C6" stroke-width="2" stroke-linecap="round" stroke-linejoin="round"/>
</svg>
