<svg width="32" height="32" viewBox="0 0 32 32" fill="none" xmlns="http://www.w3.org/2000/svg">
<g id="32 / Squad">
<g id="Rectangle 262">
</g>
<path id="Vector 175" d="M22 27C22 21.8571 18.9643 18.0003 13.5 18C8.03571 17.9997 5 21.8571 5 27" stroke="#F65D00" stroke-width="3" stroke-linecap="round"/>
<path id="Vector 554" d="M14.5 11C14.5 7 12.1786 4.00021 8 4C3.82143 3.99979 1.5 7 1.5 11" stroke="#F65D00" stroke-width="3" stroke-linecap="round"/>
<path id="Vector 553" d="M25.497 17C23.4666 15.2884 20.6079 13.0646 20.5031 10.7003C20.4294 9.0392 21.6926 7.97704 23.0023 8.00038C24.2519 8.00038 25.0118 8.74637 25.497 9.80063C25.9987 8.72229 26.7288 7.99825 28.0008 8.00038C29.2727 8.00251 30.495 9.07331 30.5 10.7003C30.5097 13.8722 25.497 17 25.497 17Z" stroke="#F65D00" stroke-width="3" stroke-linecap="round" stroke-linejoin="round"/>
<path id="Rectangle 1981" d="M10 26C10.875 27 11.75 28 13.5 28C15.25 28 16.125 27 17 26" stroke="#F65D00" stroke-width="3" stroke-linecap="round"/>
<path id="Rectangle 1982" d="M5.5 12C6.75 13.3333 9.25 13.3333 10.5 12" stroke="#F65D00" stroke-width="3" stroke-linecap="round"/>
</g>
</svg>
