<svg width="32" height="32" viewBox="0 0 32 32" fill="none" xmlns="http://www.w3.org/2000/svg">
<g id="Frame">
<path id="Vector" d="M27.4074 13.4167L26.5828 25.0101C26.4631 26.6929 25.0634 27.9972 23.3764 27.998L21.2561 27.999C20.0716 27.9995 19.1111 27.0395 19.1111 25.855V22.7778C19.1111 21.0596 17.7182 19.6667 16 19.6667C14.2818 19.6667 12.8889 21.0596 12.8889 22.7778V25.855C12.8889 27.0395 11.9284 27.9995 10.7439 27.999L8.62357 27.998C6.93656 27.9972 5.53691 26.6929 5.41721 25.0101L4.59259 13.4167M27.4074 13.4167L30 15.5M27.4074 13.4167L17.2392 4.13157C16.5374 3.49069 15.4626 3.49069 14.7608 4.13157L4.59259 13.4167M4.59259 13.4167L2 15.5" stroke="#888A8E" stroke-width="3" stroke-linecap="round"/>
</g>
</svg>
