<svg width="28" height="28" viewBox="0 0 28 28" fill="none" xmlns="http://www.w3.org/2000/svg">
<path d="M6.96281 24.3068C8.4023 25 10.2682 25 14 25C17.7318 25 19.5977 25 21.0372 24.3068C22.4659 23.6187 23.6187 22.4659 24.3068 21.0372C25 19.5977 25 17.7318 25 14C25 10.2682 25 8.4023 24.3068 6.96281C23.6187 5.53406 22.4659 4.38127 21.0372 3.69322C19.5977 3 17.7318 3 14 3C10.2682 3 8.4023 3 6.96281 3.69322C5.53406 4.38127 4.38127 5.53406 3.69322 6.96281C3 8.4023 3 10.2682 3 14C3 17.7318 3 19.5977 3.69322 21.0372C4.38127 22.4659 5.53406 23.6187 6.96281 24.3068Z" stroke="#000000" stroke-width="3"/>
<path d="M14 14C14.3693 15.4771 15.5229 16.6305 17 16.9998C15.5228 17.369 14.3693 18.5228 14 20C13.6308 18.5229 12.4772 17.3692 11 17.0002C12.4771 16.6307 13.6307 15.4772 14 14Z" fill="#000000" stroke="#000000" stroke-width="2" stroke-linecap="round" stroke-linejoin="round"/>
<path d="M5 9H23" stroke="#000000" stroke-width="3" stroke-linecap="round" stroke-linejoin="round"/>
</svg>
