<svg width="28" height="28" viewBox="0 0 28 28" fill="none" xmlns="http://www.w3.org/2000/svg">
<path d="M10.7808 18.7271C12.0885 19.8936 14.881 22.1744 17.9424 23.3808C19.0235 23.8069 20.1119 23.0174 20.2011 21.8588C20.34 20.0533 20.5 17.1766 20.5 13.5C20.5 9.96406 20.352 7.16793 20.2171 5.35309C20.1253 4.11904 18.9164 3.33238 17.8118 3.89018C14.8058 5.40815 12.0772 7.90932 10.786 9.18971C10.2872 9.68438 9.57697 9.91134 8.88568 9.7862C4.70055 9.02859 3 9.37828 3 14C3 18.6442 4.71712 18.9747 8.9469 18.2027C9.60474 18.0826 10.2818 18.2819 10.7808 18.7271Z" stroke="#000000" stroke-width="3"/>
<path d="M10.5 9.5C9.81272 10.1881 9 11.9347 9 14C9 16.0653 9.81272 17.8119 10.5 18.5" stroke="#000000" stroke-width="3" stroke-linecap="round"/>
<path d="M10 18C9.5 20.5 10 25 10 25H8.99995C8 23 7.5 20 7.5 19" stroke="#000000" stroke-width="3" stroke-linejoin="round"/>
<path d="M25 16C26.3984 16 26.2666 12 25 12V16Z" stroke="#000000" stroke-width="3" stroke-linecap="round" stroke-linejoin="round"/>
</svg>
