<svg width="28" height="28" viewBox="0 0 28 28" fill="none" xmlns="http://www.w3.org/2000/svg">
<path fill-rule="evenodd" clip-rule="evenodd" d="M11 14C11 16.4231 10.4975 18.284 9.776 19.4609C9.0815 20.5963 8.3255 20.9231 7.625 20.9231C6.9245 20.9231 6.17 20.5949 5.474 19.4609C5.066 18.7963 4.73 17.9157 4.514 16.8371C4.9385 17.2372 5.4845 17.4615 6.125 17.4615C7.739 17.4615 8.75 16.0354 8.75 14C8.75 11.9646 7.739 10.5385 6.125 10.5385C5.82441 10.5354 5.5263 10.589 5.249 10.6962C4.9717 10.8033 4.72107 10.9617 4.5125 11.1615C4.73 10.0843 5.0675 9.20231 5.4725 8.53908C6.17 7.40369 6.926 7.07692 7.625 7.07692C8.324 7.07692 9.08 7.40508 9.776 8.53908C10.4975 9.716 11 11.5769 11 14ZM13.25 14C13.25 19.292 11.0825 23 7.625 23C4.1675 23 2 19.292 2 14C2 8.708 4.1675 5 7.625 5C11.0825 5 13.25 8.708 13.25 14ZM23.75 14C23.75 16.4231 23.2475 18.284 22.526 19.4609C21.8315 20.5963 21.0755 20.9231 20.375 20.9231C19.6745 20.9231 18.92 20.5949 18.224 19.4609C17.816 18.7963 17.48 17.9157 17.264 16.8371C17.6885 17.2372 18.2345 17.4615 18.875 17.4615C20.489 17.4615 21.5 16.0354 21.5 14C21.5 11.9646 20.489 10.5385 18.875 10.5385C18.5744 10.5354 18.2763 10.589 17.999 10.6962C17.7217 10.8033 17.4711 10.9617 17.2625 11.1615C17.48 10.0843 17.8175 9.20231 18.2225 8.53908C18.92 7.40369 19.676 7.07692 20.375 7.07692C21.074 7.07692 21.83 7.40508 22.526 8.53908C23.2475 9.716 23.75 11.5783 23.75 14ZM26 14C26 19.292 23.8325 23 20.375 23C16.9175 23 14.75 19.292 14.75 14C14.75 8.708 16.9175 5 20.375 5C23.8325 5 26 8.708 26 14Z" fill="#000000"/>
</svg>
