<svg width="28" height="28" viewBox="0 0 28 28" fill="none" xmlns="http://www.w3.org/2000/svg">
<path d="M24.0291 6.82244L24.0291 6.82255C23.5571 6.59561 23.1233 6.36843 22.7058 6.14983C20.8803 5.19394 19.3678 4.40198 16.3548 4.51051L14.7734 4.56748L14.9148 6.14356C14.9391 6.41403 14.8587 6.50835 14.7747 6.57831C14.6383 6.69192 14.3655 6.8049 14.0042 6.80492C13.6429 6.80495 13.3701 6.69202 13.2337 6.57844C13.1498 6.50852 13.0693 6.41413 13.0936 6.14335L13.2347 4.56764L11.6537 4.51052C8.64333 4.40175 7.12791 5.19366 5.30268 6.14747C4.88226 6.36717 4.44539 6.59546 3.97004 6.82331C3.91418 6.84957 3.85319 6.87787 3.79379 6.90544C3.70116 6.94842 3.61238 6.98961 3.55295 7.01851C3.54993 7.01998 3.54603 7.02183 3.54131 7.02408C3.46692 7.05948 3.1892 7.19162 2.96175 7.42343C2.79697 7.59137 2.63994 7.82379 2.55755 8.12358C2.48209 8.39817 2.49796 8.62923 2.51076 8.74383C2.52147 8.83968 2.54104 8.93308 2.54399 8.94712C2.54416 8.94797 2.54428 8.94853 2.54433 8.94878C2.54976 8.97574 2.5498 8.97709 2.54967 8.9762L2.56501 9.0801L2.59469 9.18086C3.05807 10.7543 3.66835 11.866 4.72921 13.1332L4.73984 13.1459L4.75074 13.1583C5.40364 13.9041 6.31701 13.8138 6.63565 13.7658C6.87565 13.7296 7.11595 13.6639 7.33635 13.591C7.30515 15.9787 7.3044 18.011 7.51232 20.8746L7.51395 20.897L7.51624 20.9193C7.52326 20.9876 7.53122 21.0735 7.53929 21.1605C7.55152 21.2924 7.564 21.4271 7.57385 21.5076C7.57442 21.5122 7.57504 21.5176 7.57575 21.5237C7.59043 21.6498 7.64107 22.0848 7.92716 22.4735C8.30548 22.9875 8.83427 23.109 8.99721 23.1452C9.08167 23.164 9.17149 23.1791 9.22585 23.1883L9.23919 23.1906C9.30439 23.2017 9.36275 23.2117 9.42961 23.225L9.43257 23.2256C10.8278 23.5005 13.0691 23.5001 13.9484 23.5C13.9676 23.5 13.9861 23.5 14.004 23.5C14.0218 23.5 14.0404 23.5 14.0595 23.5C14.9389 23.5001 17.1802 23.5005 18.5754 23.2256L18.5783 23.225C18.6452 23.2117 18.7036 23.2017 18.7688 23.1906L18.7821 23.1883C18.8365 23.1791 18.9263 23.164 19.0107 23.1452C19.1737 23.109 19.7025 22.9875 20.0808 22.4735C20.3669 22.0848 20.4175 21.6498 20.4322 21.5237C20.4329 21.5176 20.4335 21.5122 20.4341 21.5076C20.444 21.4271 20.4564 21.2924 20.4687 21.1605C20.4767 21.0735 20.4847 20.9876 20.4917 20.9193L20.494 20.8974L20.4956 20.8754C20.7047 18.0175 20.7043 15.9809 20.6725 13.595C20.8909 13.667 21.129 13.7318 21.3669 13.7673C21.688 13.8153 22.6004 13.9024 23.2505 13.1541L23.259 13.1443L23.2674 13.1343C24.3309 11.8666 24.9411 10.7544 25.4056 9.18208L25.4355 9.08074L25.451 8.9762C25.451 8.97631 25.451 8.97593 25.4512 8.97482C25.4513 8.97398 25.4516 8.97272 25.4519 8.97093L25.457 8.94459C25.4571 8.94418 25.4572 8.94342 25.4575 8.94231C25.4609 8.92567 25.4801 8.83215 25.4904 8.73471C25.5027 8.61773 25.5166 8.3865 25.4392 8.1127C25.3549 7.81505 25.1976 7.58538 25.0343 7.42001C24.8084 7.19128 24.5334 7.06008 24.4593 7.02471C24.4546 7.02246 24.4507 7.02059 24.4476 7.01912C24.3911 6.99154 24.3046 6.95124 24.2143 6.90917C24.1515 6.87989 24.0869 6.84975 24.0291 6.82244Z" stroke="#000000" stroke-width="3"/>
<path d="M14.0771 20C11.8219 20 10.4775 19.2862 10.1028 18.3319C10.0367 18.1534 10 17.9672 10 17.8198C10 17.1371 10.4775 16.6405 11.146 16.6405C11.6088 16.6405 12.0129 16.8345 12.4536 17.2612C12.9091 17.7112 13.4233 17.9207 14.0771 17.9207C14.6575 17.9207 15.0174 17.6957 15.0174 17.3388C15.0174 17.0284 14.7824 16.8578 14.0992 16.7259L12.6299 16.4388C11.0211 16.1284 10.1763 15.2052 10.1763 13.8784C10.1763 12.094 11.6088 11 13.9669 11C15.9725 11 17.2433 11.8224 17.5592 12.7379C17.6107 12.8853 17.64 13.0405 17.64 13.1957C17.64 13.7931 17.2874 14.2276 16.494 14.2276C16.1855 14.2276 15.7521 14.0957 15.5096 13.894C15.0909 13.5603 14.7236 13.0793 13.9669 13.0793C13.4233 13.0793 13.056 13.3121 13.056 13.7C13.056 14.0026 13.2544 14.1888 13.989 14.3362L15.4582 14.6233C17.214 14.9647 18 15.6784 18 16.9741C18 18.8362 16.4279 20 14.0771 20Z" fill="#000000"/>
</svg>
