<svg width="28" height="28" viewBox="0 0 28 28" fill="none" xmlns="http://www.w3.org/2000/svg">
<path d="M22.0967 5.61816C24.0783 6.881 25.25 9.98327 25.25 14C25.25 19.292 23.218 23 19.9766 23C17.5717 22.9999 15.8332 20.9588 15.0957 17.7441L19.2031 10.6299C20.343 10.974 21.0312 12.2656 21.0312 14C21.0312 16.0354 20.0835 17.4619 18.5703 17.4619C17.9699 17.4619 17.4585 17.237 17.0605 16.8369C17.263 17.9155 17.5775 18.7963 17.96 19.4609C18.6124 20.5949 19.3199 20.9228 19.9766 20.9229C20.6333 20.9229 21.3421 20.5963 21.9932 19.4609C22.6696 18.284 23.1406 16.4231 23.1406 14C23.1406 11.5783 22.6696 9.71598 21.9932 8.53906C21.6881 8.00882 21.3703 7.6554 21.0518 7.42871L22.0967 5.61816ZM8.02344 5C10.3018 5 11.9806 6.8325 12.7783 9.75879L11.1318 12.6113C10.9893 10.8583 10.5808 9.48 10.04 8.53906C9.38754 7.40509 8.67875 7.07715 8.02344 7.07715C7.36817 7.07716 6.65973 7.40385 6.00586 8.53906C5.62622 9.20221 5.30938 10.0841 5.10547 11.1611C5.30094 10.9614 5.53606 10.8034 5.7959 10.6963C6.05586 10.5891 6.33539 10.535 6.61719 10.5381C8.13031 10.5381 9.0781 11.9646 9.07812 14C9.07812 16.0354 8.13033 17.4619 6.61719 17.4619C6.01673 17.4619 5.50441 17.2371 5.10645 16.8369C5.30894 17.9155 5.62436 18.7963 6.00684 19.4609C6.22285 19.8364 6.44572 20.1228 6.66992 20.3389L5.6084 22.1777C3.80571 20.8042 2.75 17.8136 2.75 14C2.75002 8.70802 4.78205 5.00004 8.02344 5Z" fill="#888A8E"/>
<path d="M7 26L21 2" stroke="#888A8E" stroke-width="2" stroke-linecap="round"/>
</svg>
